<?xml version="1.0" encoding="UTF-8"?>
<svg width="305px" height="260px" viewBox="0 0 305 260" version="1.1" xmlns="http://www.w3.org/2000/svg" xmlns:xlink="http://www.w3.org/1999/xlink">
    <!-- Generator: Sketch 63.1 (92452) - https://sketch.com -->
    <title>分组 5</title>
    <desc>Created with Sketch.</desc>
    <defs>
        <linearGradient x1="50%" y1="0%" x2="50%" y2="38.9386077%" id="linearGradient-1">
            <stop stop-color="#EBEDF2" stop-opacity="0.97893903" offset="0%"></stop>
            <stop stop-color="#FFFFFF" stop-opacity="0.213060462" offset="100%"></stop>
        </linearGradient>
        <linearGradient x1="50%" y1="0%" x2="50%" y2="98.0491329%" id="linearGradient-2">
            <stop stop-color="#FFF7F3" offset="0%"></stop>
            <stop stop-color="#FFE0CF" offset="100%"></stop>
        </linearGradient>
        <rect id="path-3" x="117.091954" y="5.606469" width="70.1149425" height="85.4986523" rx="2.8"></rect>
        <filter x="-7.1%" y="-4.7%" width="114.3%" height="111.7%" filterUnits="objectBoundingBox" id="filter-4">
            <feOffset dx="0" dy="1" in="SourceAlpha" result="shadowOffsetOuter1"></feOffset>
            <feGaussianBlur stdDeviation="1.5" in="shadowOffsetOuter1" result="shadowBlurOuter1"></feGaussianBlur>
            <feColorMatrix values="0 0 0 0 0.829512002   0 0 0 0 0.815792177   0 0 0 0 0.815792177  0 0 0 1 0" type="matrix" in="shadowBlurOuter1"></feColorMatrix>
        </filter>
        <path d="M119.891954,5.606469 L182.953284,5.606469 C184.499681,5.606469 185.753284,6.8600717 185.753284,8.406469 C185.753284,8.78715302 185.675656,9.16383892 185.525145,9.51350552 L161.264368,65.8760108 L161.264368,65.8760108 C156.59137,75.7485121 150.631599,82.8733998 143.385057,87.2506739 C136.717819,91.2780199 128.76573,92.6875792 119.528791,91.4793518 C118.134655,91.2969876 117.091954,90.1090156 117.091954,88.7030022 L117.091954,8.406469 C117.091954,6.8600717 118.345557,5.606469 119.891954,5.606469 Z" id="path-5"></path>
        <filter x="-16.0%" y="-11.6%" width="132.0%" height="125.5%" filterUnits="objectBoundingBox" id="filter-6">
            <feOffset dx="0" dy="1" in="SourceAlpha" result="shadowOffsetOuter1"></feOffset>
            <feGaussianBlur stdDeviation="3.5" in="shadowOffsetOuter1" result="shadowBlurOuter1"></feGaussianBlur>
            <feColorMatrix values="0 0 0 0 0.888303895   0 0 0 0 0.888303895   0 0 0 0 0.888303895  0 0 0 1 0" type="matrix" in="shadowBlurOuter1"></feColorMatrix>
        </filter>
        <linearGradient x1="146.594963%" y1="0%" x2="9.5083296%" y2="100%" id="linearGradient-7">
            <stop stop-color="#FFFFFF" stop-opacity="0.095388986" offset="0%"></stop>
            <stop stop-color="#DADCE3" offset="100%"></stop>
        </linearGradient>
        <linearGradient x1="38.8170519%" y1="60.2552626%" x2="56.2645474%" y2="90.9683128%" id="linearGradient-8">
            <stop stop-color="#E5E6EB" offset="0%"></stop>
            <stop stop-color="#BFC4C9" offset="100%"></stop>
        </linearGradient>
    </defs>
    <g id="开放平台" stroke="none" stroke-width="1" fill="none" fill-rule="evenodd" opacity="0.8">
        <g id="图片印章处理-上传图片后-" transform="translate(-568.000000, -669.000000)" fill-rule="nonzero">
            <g id="编组-15" transform="translate(568.000000, 669.000000)">
                <g id="分组-5">
                    <g id="分组" transform="translate(0.000000, 6.307278)">
                        <path d="M153.201149,253.692722 C231.228828,253.692722 305,211.648519 305,159.784367 C305,107.920214 231.228828,65.8760108 153.201149,65.8760108 C75.1734712,65.8760108 3.63797881e-12,107.920214 3.63797881e-12,159.784367 C3.63797881e-12,211.648519 75.1734712,253.692722 153.201149,253.692722 Z" id="椭圆形" fill="url(#linearGradient-1)"></path>
                        <rect id="矩形" fill="url(#linearGradient-2)" x="110.08046" y="0" width="84.137931" height="98.1132075" rx="2.8"></rect>
                        <rect id="矩形" fill="#D7D8E0" x="112.183908" y="0" width="84.137931" height="98.1132075" rx="5.6"></rect>
                        <rect id="矩形" fill="#EBECF0" x="110.08046" y="0" width="84.137931" height="98.1132075" rx="2.8"></rect>
                        <g id="矩形">
                            <use fill="black" fill-opacity="1" filter="url(#filter-4)" xlink:href="#path-3"></use>
                            <use fill="#F5F6F8" xlink:href="#path-3"></use>
                        </g>
                        <g id="矩形">
                            <use fill="black" fill-opacity="1" filter="url(#filter-6)" xlink:href="#path-5"></use>
                            <use fill="#FBFBFB" xlink:href="#path-5"></use>
                        </g>
                    </g>
                    <ellipse id="椭圆形" fill="#ECEFF4" cx="182.298851" cy="116.334232" rx="21.7356322" ry="1.40161725"></ellipse>
                    <path d="M168.283908,0 C170.990103,-4.97120007e-16 173.183908,2.19380473 173.183908,4.9 L173.183908,6.30727763 L171.781609,6.30727763 L171.780989,10.98 L171.679271,11.3202969 C171.323846,12.5044717 170.233829,13.3153639 168.997465,13.3153639 L138.822989,13.3153639 C137.276591,13.3153639 136.022989,12.0617612 136.022989,10.5153639 L136.022989,2.8 C136.022989,1.2536027 137.276591,7.28157785e-16 138.822989,0 L168.283908,0 Z" id="合并形状" fill="#D7D8E0"></path>
                    <rect id="矩形" fill="#EBECF0" x="132.517241" y="0" width="37.862069" height="13.3153639" rx="2.8"></rect>
                    <g id="印章" transform="translate(137.000000, 33.000000)" fill="url(#linearGradient-7)">
                        <path d="M0.69179768,29.2445653 L28.5527676,29.2445653 C28.9351899,29.2445653 29.2445653,29.5539406 29.2445653,29.936363 L29.2445653,31.8055058 C29.2445653,32.1879281 28.9351899,32.4973034 28.5527676,32.4973034 L0.69179768,32.4973034 C0.30937536,32.4973034 -1.3500312e-13,32.1879281 -1.3500312e-13,31.8055058 L-1.3500312e-13,29.936363 C-1.3500312e-13,29.5539406 0.30937536,29.2445653 0.69179768,29.2445653 Z M27.0832346,20.5777583 L21.6090095,20.5777583 C20.1523672,20.5777583 18.9363502,19.4605695 18.8203344,18.0082241 C18.5152559,14.0808758 22.7476827,12.2031392 22.7476827,7.38633672 C22.7476827,3.29570696 19.6324447,-3.55271368e-15 14.6222826,-3.55271368e-15 C9.61212056,-3.55271368e-15 6.50117944,3.30000384 6.50117944,7.38633672 C6.50117944,12.2031392 10.7336062,14.0808758 10.4285278,18.0082241 C10.3082151,19.4605695 9.09649496,20.5777583 7.63985264,20.5777583 L2.16133064,20.5777583 C0.966798,20.5777583 -1.38555833e-13,21.5445563 -1.38555833e-13,22.739089 L-1.38555833e-13,26.3871401 C-1.38555833e-13,26.7695624 0.30937536,27.0789378 0.69179768,27.0789378 L28.5527676,27.0789378 C28.9351899,27.0789378 29.2445653,26.7695624 29.2445653,26.3871401 L29.2445653,22.739089 C29.2445653,21.5488532 28.2777673,20.5777583 27.0832346,20.5777583 Z" id="形状"></path>
                    </g>
                    <path d="M185.103448,16.819407 C170.613027,60.0359389 157.758621,84.9146451 146.54023,91.4555256 C146.54023,87.017071 142.333333,81.5274034 133.91954,74.9865229 L185.103448,16.819407 Z" id="路径-25" fill="url(#linearGradient-8)"></path>
                    <g id="分组-2" transform="translate(159.862069, 53.962264)">
                        <g id="分组-3" transform="translate(17.661875, 0.000000)">
                            <path d="M1.7316239,6.2951548 C1.67451035,7.6808807 1.52726417,8.37374364 1.28988536,8.37374364 C1.05250655,8.37374364 2.17400905,8.37374364 4.65439285,8.37374364 C4.19587429,7.22557076 4.10579448,6.44362543 4.38415343,6.02790766 C4.66251238,5.61218989 3.77833587,5.70127227 1.7316239,6.2951548 Z" id="路径-32" fill="#F8DEC2"></path>
                            <path d="M3.04029158,7.02934747e-06 C4.18038594,0.0230636954 5.29500202,0.487712951 5.51150717,1.22062063 C5.92904559,2.30148686 5.72027638,5.21151125 4.67643032,6.62495164 C4.19782897,7.02522378 3.58756495,7.19827575 3.00661713,7.20421139 L3.04003074,7.202 L3.04053868,7.20421139 L3.02303074,7.203 L3.00661713,7.20421139 L3.00603074,7.202 L2.84602444,7.1959609 C2.32560209,7.15701457 1.79614891,6.9807491 1.37072548,6.62495164 C0.326879429,5.21151125 0.118110218,2.30148686 0.53564864,1.22062063 C0.752153785,0.487712951 1.86676987,0.0230636954 3.00631838,0.000547074856 C3.01252737,7.5156786e-05 3.01819011,0.000154238509 3.02385235,0.0002442532 L3.04029158,7.02934747e-06 L3.04029158,7.02934747e-06 Z" id="合并形状" fill="#333333"></path>
                        </g>
                        <polygon id="路径-31" fill="#F5E5D4" points="15.86646 59.6554999 16.0752292 60.9026532 16.9103061 60.9026532 17.1190753 59.6554999"></polygon>
                        <polygon id="路径-31" fill="#F5E5D4" points="25.7203668 59.6554999 25.929136 60.9026532 26.7642128 60.9026532 26.972982 59.6554999"></polygon>
                        <path d="M11.0647682,28.4766672 C11.2039477,32.6338449 11.7606655,36.9988815 12.7349219,41.571777 C13.4308192,46.1446724 14.3354858,52.380439 15.4489216,60.2790766 L17.5366137,60.2790766 C19.0675879,44.0660836 20.2506135,35.9595871 21.0856903,35.9595871 C21.4296076,35.9595871 22.2938945,38.8218679 22.755844,41.571777 C23.1956607,44.1899338 24.1003273,50.4257003 25.4698437,60.2790766 L27.3487666,60.2790766 C28.4622024,51.9647212 29.366869,45.4518095 30.0627664,40.7403414 C30.7586637,36.0288734 31.1762022,32.0795546 31.3153816,28.892385 L11.0647682,28.4766672 Z" id="路径-28" fill="#DADCE3"></path>
                        <path d="M18.789229,7.48291985 C15.4489216,9.76936759 12.1086142,14.1344042 6.88938396,12.8872509 C4.24497395,12.0558153 2.78358948,9.00721834 2.50523053,3.74145993 L0.835076844,4.1571777 C-1.11343579,12.7486783 2.64441,18.1530093 12.1086142,20.3701707 C11.4127169,23.0030499 11.0647682,25.9130743 11.0647682,29.1002439 C15.2401524,29.6545342 18.51087,29.9316794 20.8769211,29.9316794 C23.2429721,29.9316794 26.722459,29.6545342 31.3153816,29.1002439 L30.2715356,19.7465941 C31.2457919,19.3308763 32.0808687,19.5387352 32.7767661,20.3701707 C33.4726635,21.2016062 32.9855353,22.2409007 31.3153816,23.488054 L32.3592277,24.7352073 C37.0239357,22.7739649 38.2069612,20.210372 35.9083043,17.0444286 C32.4603188,12.2955134 22.755844,7.06720208 22.1712902,7.35820452 C20.0418442,8.31435539 19.4155366,7.06720208 18.789229,7.48291985 Z" id="路径-30" fill="#505568"></path>
                        <path d="M16.5280614,60.6947944 C17.4504618,60.6947944 17.8641843,61.1968147 17.8641843,61.8160882 L17.8641843,61.8160882 L15.1251323,61.8160882 C15.1251323,61.1968147 15.605661,60.6947944 16.5280614,60.6947944 Z" id="合并形状" fill="#333333"></path>
                        <path d="M26.4142683,60.6947944 C27.3366687,60.6947944 27.7503912,61.1968147 27.7503912,61.8160882 L27.7503912,61.8160882 L25.0113392,61.8160882 C25.0113392,61.1968147 25.4918679,60.6947944 26.4142683,60.6947944 Z" id="合并形状" fill="#333333"></path>
                        <path d="M31.3153816,23.488054 C30.9535181,23.488054 30.6055695,23.6266266 30.2715356,23.9037718 C29.7704848,24.3194895 29.7704848,24.3056198 29.8539972,24.5273484 C29.9027068,24.6566745 30.1462709,24.6566745 30.5846894,24.5273484 C30.0975612,24.8044936 29.9931766,25.1509251 30.2715356,25.5666428 C30.5498945,25.9823606 30.8978432,26.0697712 31.3153816,25.8288746 C31.4445208,25.7843383 31.5837003,25.6969277 31.7329201,25.5666428 C31.8821399,25.436358 32.0909091,25.1592128 32.3592277,24.7352073 L31.3153816,23.488054 Z" id="路径" fill="#F8DEC2"></path>
                        <path d="M2.32254822,4.1571777 C3.12472579,2.90503814 3.37272403,2.25358715 3.06654295,2.20282474 C2.76036186,2.15206232 2.51236362,2.26204755 2.32254822,2.53278043 C2.04033361,2.112741 1.70924716,1.84200812 1.32928889,1.7205818 C0.94617434,1.5981468 0.478851447,1.67268358 0.233875387,1.92363146 C-0.011100674,2.17457933 -0.0372747792,2.44263676 0.0357527877,2.97564211 C0.118740286,3.45925846 0.385008951,3.85310365 0.834558784,4.1571777 L2.32254822,4.1571777 Z" id="路径-33" fill="#F8DEC2"></path>
                    </g>
                    <g id="分组-4" transform="translate(75.022989, 55.363881)">
                        <path d="M6.52743344,1.84741111e-13 L0.297457332,18.7194823 C4.83014049,21.0326537 9.36282364,21.0326537 13.8955068,18.7194823 C12.3189213,14.8195902 9.8628969,8.57976274 6.52743344,1.84741111e-13 Z" id="路径-34" fill="#EBECF0"></path>
                        <line x1="6.58655521" y1="8.58263031" x2="6.79902473" y2="32.2371968" id="直线" stroke="#A1A1B0" stroke-width="0.5" stroke-linecap="square"></line>
                    </g>
                    <g id="分组-4" transform="translate(232.781609, 63.072776)">
                        <path d="M7.50654845,2.27373675e-13 L0.342075932,21.9750445 C5.55466156,24.6905065 10.7672472,24.6905065 15.9798328,21.9750445 C14.1667595,17.3969102 11.3423314,10.0718954 7.50654845,2.27373675e-13 Z" id="路径-34" fill="#EBECF0"></path>
                        <line x1="7.57453849" y1="10.0752617" x2="7.81887844" y2="37.8436658" id="直线" stroke="#A1A1B0" stroke-width="0.5" stroke-linecap="square"></line>
                    </g>
                </g>
            </g>
        </g>
    </g>
</svg>