<?xml version="1.0" encoding="UTF-8"?>
<svg width="16px" height="18px" viewBox="0 0 16 18" version="1.1" xmlns="http://www.w3.org/2000/svg" xmlns:xlink="http://www.w3.org/1999/xlink">
    <!-- Generator: Sketch 63.1 (92452) - https://sketch.com -->
    <title>重新上传 (1)</title>
    <desc>Created with Sketch.</desc>
    <g id="开放平台" stroke="none" stroke-width="1" fill="none" fill-rule="evenodd">
        <g id="图片印章处理-上传图片后-" transform="translate(-505.000000, -162.000000)" fill="#88959C" fill-rule="nonzero">
            <g id="编组-8" transform="translate(500.000000, 157.000000)">
                <g id="重新上传-(1)" transform="translate(5.000000, 5.000000)">
                    <path d="M7.09291144,3.40810882 C6.96487729,3.40810882 6.70880901,3.28007467 6.58077488,3.15204054 C6.3247066,2.89597227 6.3247066,2.51186984 6.58077488,2.25580154 L8.88538944,0.207255274 C9.14145772,-0.0488130043 9.52556015,-0.0488130043 9.78162843,0.207255274 C10.0376967,0.463323553 10.0376967,0.84742598 9.78162843,1.10349426 L7.60504801,3.15204054 C7.47701386,3.28007469 7.22094559,3.40810882 7.09291144,3.40810882 L7.09291144,3.40810882 Z" id="路径"></path>
                    <path d="M9.397526,5.45665511 C9.26949185,5.45665511 9.14145772,5.45665511 9.01342357,5.32862096 L6.70880901,3.15204054 C6.45274073,2.89597227 6.45274073,2.51186984 6.70880901,2.25580154 C6.96487729,1.99973326 7.34897972,1.99973326 7.60504801,2.25580154 L9.78162843,4.30434783 C10.0376967,4.5604161 10.0376967,4.94451853 9.78162843,5.20058683 C9.65359428,5.32862098 9.52556015,5.45665511 9.397526,5.45665511 Z" id="路径"></path>
                    <path d="M7.8175847,17.6647106 C3.46442385,17.6647106 0.00750200053,14.2077887 0.00750200053,9.8546279 C0.00750200053,7.67804749 0.903741004,5.75753535 2.31211656,4.22112564 C2.56818484,3.96505736 2.95228727,3.96505736 3.20835557,4.22112564 C3.46442385,4.47719392 3.46442385,4.86129635 3.20835557,5.11736462 C1.92801414,6.39770605 1.28784343,8.06214989 1.28784343,9.8546279 C1.28784343,13.4395839 4.2326287,16.3843692 7.8175847,16.3843692 C11.4025407,16.3843692 14.347326,13.4395839 14.347326,9.8546279 C14.347326,6.26967191 11.4025407,3.32488664 7.8175847,3.32488664 C7.43348227,3.32488664 7.17741399,3.06881836 7.17741397,2.68471593 C7.17741395,2.3006135 7.43348225,2.04454521 7.8175847,2.04454521 C12.1707455,2.04454521 15.6276674,5.50146705 15.6276674,9.8546279 C15.6276674,14.2077887 12.1707455,17.6647106 7.8175847,17.6647106 Z" id="路径"></path>
                </g>
            </g>
        </g>
    </g>
</svg>